<?xml version="1.0" encoding="iso-8859-1"?>
<!-- Generator: Adobe Illustrator 19.0.0, SVG Export Plug-In . SVG Version: 6.00 Build 0)  -->
<svg version="1.1" id="Capa_1" xmlns="http://www.w3.org/2000/svg" xmlns:xlink="http://www.w3.org/1999/xlink" x="0px" y="0px"
	 viewBox="0 0 512 512" style="enable-background:new 0 0 512 512;" xml:space="preserve">
<path style="fill:#ECF0F1;" d="M475.733,503.467H36.267c-15.317,0-27.733-12.416-27.733-27.733v-364.8h494.933v364.8
	C503.467,491.051,491.051,503.467,475.733,503.467z"/>
<path style="fill:#687492;" d="M503.467,110.933H8.533V36.267c0-15.317,12.416-27.733,27.733-27.733h439.467
	c15.317,0,27.733,12.416,27.733,27.733V110.933z"/>
<rect x="42.667" y="42.667" style="fill:#E64C3C;" width="34.133" height="34.133"/>
<rect x="110.933" y="42.667" style="fill:#F0C419;" width="34.133" height="34.133"/>
<rect x="179.2" y="42.667" style="fill:#24AE5F;" width="34.133" height="34.133"/>
<path style="fill:#B1BEC6;" d="M420.634,153.6H256H91.366c-12.757,0-23.1,10.342-23.1,23.1v192.734c0,12.757,10.342,23.1,23.1,23.1
	H256h164.634c12.757,0,23.1-10.342,23.1-23.1V176.7C443.733,163.942,433.391,153.6,420.634,153.6z"/>
<rect x="375.467" y="256" style="fill:#ECF0F1;" width="34.133" height="34.133"/>
<rect x="102.4" y="187.733" style="fill:#8697CB;" width="238.933" height="170.667"/>
<g>
	<path style="fill:#B1BEC6;" d="M307.2,469.333h-93.867c-4.71,0-8.533-3.823-8.533-8.533s3.823-8.533,8.533-8.533H307.2
		c4.71,0,8.533,3.823,8.533,8.533S311.91,469.333,307.2,469.333z"/>
	<path style="fill:#B1BEC6;" d="M290.133,435.2H230.4c-4.71,0-8.533-3.823-8.533-8.533s3.823-8.533,8.533-8.533h59.733
		c4.71,0,8.533,3.823,8.533,8.533S294.844,435.2,290.133,435.2z"/>
	<path style="fill:#B1BEC6;" d="M162.133,469.333H76.8c-4.71,0-8.533-3.823-8.533-8.533s3.823-8.533,8.533-8.533h85.333
		c4.71,0,8.533,3.823,8.533,8.533S166.844,469.333,162.133,469.333z"/>
	<path style="fill:#B1BEC6;" d="M145.067,435.2h-51.2c-4.71,0-8.533-3.823-8.533-8.533s3.823-8.533,8.533-8.533h51.2
		c4.71,0,8.533,3.823,8.533,8.533S149.777,435.2,145.067,435.2z"/>
	<path style="fill:#B1BEC6;" d="M443.733,469.333H358.4c-4.71,0-8.533-3.823-8.533-8.533s3.823-8.533,8.533-8.533h85.333
		c4.71,0,8.533,3.823,8.533,8.533S448.444,469.333,443.733,469.333z"/>
	<path style="fill:#B1BEC6;" d="M426.667,435.2h-51.2c-4.71,0-8.533-3.823-8.533-8.533s3.823-8.533,8.533-8.533h51.2
		c4.71,0,8.533,3.823,8.533,8.533S431.377,435.2,426.667,435.2z"/>
</g>
<path style="fill:#FFFFFF;" d="M304.7,275.567L262.033,232.9c-3.328-3.337-8.738-3.337-12.066,0l-36.634,36.634l-19.567-19.567
	c-3.328-3.337-8.738-3.337-12.066,0l-42.667,42.667c-3.337,3.337-3.337,8.73,0,12.066c1.664,1.664,3.849,2.5,6.033,2.5
	c2.185,0,4.369-0.836,6.033-2.5l36.634-36.634l36.634,36.634c1.664,1.664,3.849,2.5,6.033,2.5s4.369-0.836,6.033-2.5
	c3.337-3.337,3.337-8.73,0-12.066L225.399,281.6L256,250.999l36.634,36.634c1.664,1.664,3.849,2.5,6.033,2.5s4.369-0.836,6.033-2.5
	C308.036,284.297,308.036,278.903,304.7,275.567z"/>
<g>
	<path style="fill:#611C90;" d="M473.6,512H38.4C17.229,512,0,494.771,0,473.6V38.4C0,17.229,17.229,0,38.4,0h435.2
		C494.771,0,512,17.229,512,38.4v435.2C512,494.771,494.771,512,473.6,512z M38.4,17.067c-11.759,0-21.333,9.574-21.333,21.333
		v435.2c0,11.767,9.574,21.333,21.333,21.333h435.2c11.767,0,21.333-9.566,21.333-21.333V38.4c0-11.759-9.566-21.333-21.333-21.333
		H38.4z"/>
	<path style="fill:#611C90;" d="M76.8,85.333H42.667c-4.71,0-8.533-3.823-8.533-8.533V42.667c0-4.71,3.823-8.533,8.533-8.533H76.8
		c4.71,0,8.533,3.823,8.533,8.533V76.8C85.333,81.51,81.51,85.333,76.8,85.333z M51.2,68.267h17.067V51.2H51.2V68.267z"/>
	<path style="fill:#611C90;" d="M145.067,85.333h-34.133c-4.71,0-8.533-3.823-8.533-8.533V42.667c0-4.71,3.823-8.533,8.533-8.533
		h34.133c4.71,0,8.533,3.823,8.533,8.533V76.8C153.6,81.51,149.777,85.333,145.067,85.333z M119.467,68.267h17.067V51.2h-17.067
		V68.267z"/>
	<path style="fill:#611C90;" d="M213.333,85.333H179.2c-4.71,0-8.533-3.823-8.533-8.533V42.667c0-4.71,3.823-8.533,8.533-8.533
		h34.133c4.71,0,8.533,3.823,8.533,8.533V76.8C221.867,81.51,218.044,85.333,213.333,85.333z M187.733,68.267H204.8V51.2h-17.067
		V68.267z"/>
	<path style="fill:#611C90;" d="M503.467,119.467H8.533c-4.71,0-8.533-3.823-8.533-8.533V38.4C0,17.229,17.229,0,38.4,0h435.2
		C494.771,0,512,17.229,512,38.4v72.533C512,115.644,508.186,119.467,503.467,119.467z M17.067,102.4h477.867v-64
		c0-11.759-9.566-21.333-21.333-21.333H38.4c-11.759,0-21.333,9.574-21.333,21.333V102.4z"/>
	<path style="fill:#611C90;" d="M420.634,401.067H91.366c-17.442,0-31.633-14.191-31.633-31.633V176.7
		c0-17.442,14.191-31.633,31.633-31.633h329.267c17.442,0,31.633,14.191,31.633,31.633v192.734
		C452.267,386.876,438.076,401.067,420.634,401.067z M91.366,162.133c-8.03,0-14.566,6.537-14.566,14.566v192.734
		c0,8.03,6.537,14.566,14.566,14.566h329.267c8.03,0,14.566-6.537,14.566-14.566V176.7c0-8.03-6.536-14.566-14.566-14.566H91.366z"
		/>
	<path style="fill:#611C90;" d="M409.6,298.667h-34.133c-4.719,0-8.533-3.814-8.533-8.533V256c0-4.71,3.814-8.533,8.533-8.533H409.6
		c4.719,0,8.533,3.823,8.533,8.533v34.133C418.133,294.852,414.319,298.667,409.6,298.667z M384,281.6h17.067v-17.067H384V281.6z"/>
	<path style="fill:#611C90;" d="M341.333,366.933H102.4c-4.71,0-8.533-3.814-8.533-8.533V187.733c0-4.71,3.823-8.533,8.533-8.533
		h238.933c4.719,0,8.533,3.823,8.533,8.533V358.4C349.867,363.119,346.052,366.933,341.333,366.933z M110.933,349.867H332.8v-153.6
		H110.933V349.867z"/>
	<path style="fill:#611C90;" d="M307.2,469.333h-93.867c-4.71,0-8.533-3.814-8.533-8.533c0-4.719,3.823-8.533,8.533-8.533H307.2
		c4.719,0,8.533,3.814,8.533,8.533C315.733,465.519,311.919,469.333,307.2,469.333z"/>
	<path style="fill:#611C90;" d="M290.133,435.2H230.4c-4.71,0-8.533-3.814-8.533-8.533s3.823-8.533,8.533-8.533h59.733
		c4.719,0,8.533,3.814,8.533,8.533S294.852,435.2,290.133,435.2z"/>
	<path style="fill:#611C90;" d="M162.133,469.333H76.8c-4.71,0-8.533-3.814-8.533-8.533c0-4.719,3.823-8.533,8.533-8.533h85.333
		c4.71,0,8.533,3.814,8.533,8.533C170.667,465.519,166.844,469.333,162.133,469.333z"/>
	<path style="fill:#611C90;" d="M145.067,435.2h-51.2c-4.71,0-8.533-3.814-8.533-8.533s3.823-8.533,8.533-8.533h51.2
		c4.71,0,8.533,3.814,8.533,8.533S149.777,435.2,145.067,435.2z"/>
	<path style="fill:#611C90;" d="M443.733,469.333H358.4c-4.719,0-8.533-3.814-8.533-8.533c0-4.719,3.814-8.533,8.533-8.533h85.333
		c4.719,0,8.533,3.814,8.533,8.533C452.267,465.519,448.452,469.333,443.733,469.333z"/>
	<path style="fill:#611C90;" d="M426.667,435.2h-51.2c-4.719,0-8.533-3.814-8.533-8.533s3.814-8.533,8.533-8.533h51.2
		c4.719,0,8.533,3.814,8.533,8.533S431.386,435.2,426.667,435.2z"/>
	<path style="fill:#611C90;" d="M145.067,307.2c-2.185,0-4.369-0.836-6.033-2.5c-3.337-3.337-3.337-8.73,0-12.066l42.667-42.667
		c3.337-3.337,8.73-3.337,12.066,0c3.337,3.337,3.337,8.73,0,12.066L151.1,304.7C149.436,306.364,147.251,307.2,145.067,307.2z"/>
	<path style="fill:#611C90;" d="M230.4,307.2c-2.185,0-4.369-0.836-6.033-2.5L181.7,262.033c-3.337-3.337-3.337-8.73,0-12.066
		c3.337-3.337,8.73-3.337,12.066,0l42.667,42.667c3.337,3.337,3.337,8.73,0,12.066C234.769,306.364,232.585,307.2,230.4,307.2z"/>
	<path style="fill:#611C90;" d="M213.333,290.133c-2.185,0-4.369-0.836-6.033-2.5c-3.337-3.337-3.337-8.73,0-12.066l42.667-42.667
		c3.337-3.337,8.73-3.337,12.066,0c3.337,3.337,3.337,8.73,0,12.066l-42.667,42.667
		C217.702,289.297,215.518,290.133,213.333,290.133z"/>
	<path style="fill:#611C90;" d="M298.667,290.133c-2.185,0-4.369-0.836-6.033-2.5l-42.667-42.667c-3.337-3.337-3.337-8.73,0-12.066
		c3.337-3.337,8.73-3.337,12.066,0l42.667,42.667c3.337,3.337,3.337,8.73,0,12.066C303.036,289.297,300.851,290.133,298.667,290.133
		z"/>
</g>
<g>
</g>
<g>
</g>
<g>
</g>
<g>
</g>
<g>
</g>
<g>
</g>
<g>
</g>
<g>
</g>
<g>
</g>
<g>
</g>
<g>
</g>
<g>
</g>
<g>
</g>
<g>
</g>
<g>
</g>
</svg>
